<?xml version="1.0" standalone="no"?><!DOCTYPE svg PUBLIC "-//W3C//DTD SVG 1.1//EN" "http://www.w3.org/Graphics/SVG/1.1/DTD/svg11.dtd"><svg t="1755527847592" class="icon" viewBox="0 0 1024 1024" version="1.1" xmlns="http://www.w3.org/2000/svg" p-id="2216" xmlns:xlink="http://www.w3.org/1999/xlink" width="200" height="200"><path d="M512 62C263.488 62 62 263.488 62 512s201.488 450 450 450 450-201.488 450-450S760.512 62 512 62z m0 45c223.312 0 405 181.688 405 405S735.312 917 512 917 107 735.312 107 512s181.688-405 405-405zM335.88 299.99c-14.062 0-25.42 11.308-25.42 25.37v352.18c0 14.062 11.358 25.48 25.42 25.48l352.24 0.01c14.062 0 25.42-11.428 25.42-25.49V325.36c0-14.062-11.358-25.37-25.42-25.37H335.88z" p-id="2217"></path></svg>