<?xml version="1.0" standalone="no"?><!DOCTYPE svg PUBLIC "-//W3C//DTD SVG 1.1//EN" "http://www.w3.org/Graphics/SVG/1.1/DTD/svg11.dtd"><svg t="1755509271938" class="icon" viewBox="0 0 1024 1024" version="1.1" xmlns="http://www.w3.org/2000/svg" p-id="2816" xmlns:xlink="http://www.w3.org/1999/xlink" width="200" height="200"><path d="M896 252.39H126.976q-24.576 0-39.936 11.263-15.36 11.264-20.992 28.672-5.632 17.408-0.512 38.4 5.12 20.992 22.528 41.472 37.888 40.96 79.872 86.016 41.984 45.056 86.016 91.136l86.016 92.16q44.032 46.08 83.968 89.088 18.432 19.456 44.032 28.672 25.6 9.216 52.736 8.704 27.136-0.512 53.248-11.776t45.568-31.744q70.656-73.728 147.456-159.744 76.8-86.016 160.768-184.32 19.456-23.552 26.624-46.592 7.168-23.04 2.56-40.96-4.608-17.92-20.48-29.184T896 252.389z" p-id="2817"></path></svg>